Land_normalized_Precision Landing12_filtered_grf
version=1
nRows=30
nColumns=37
inDegrees=yes
endheader
time		1_ground_force_vx		1_ground_force_vy		1_ground_force_vz		1_ground_force_px		1_ground_force_py		1_ground_force_pz		1_ground_torque_x		1_ground_torque_y		1_ground_torque_z		2_ground_force_vx		2_ground_force_vy		2_ground_force_vz		2_ground_force_px		2_ground_force_py		2_ground_force_pz		2_ground_torque_x		2_ground_torque_y		2_ground_torque_z		3_ground_force_vx		3_ground_force_vy		3_ground_force_vz		3_ground_force_px		3_ground_force_py		3_ground_force_pz		3_ground_torque_x		3_ground_torque_y		3_ground_torque_z		4_ground_force_vx		4_ground_force_vy		4_ground_force_vz		4_ground_force_px		4_ground_force_py		4_ground_force_pz		4_ground_torque_x		4_ground_torque_y		4_ground_torque_z		
1.210333		1.466739		854.060133		119.118996		0.107859		0.000000		0.322936		0.027518		16.023203		2.234818		21.670528		733.413744		69.510254		-0.141126		0.000000		0.332388		0.372229		12.597320		1.193967		2.760662		-0.511153		-0.375253		0.353391		1.255287		1.891403		0.001532		0.004025		0.056469		-15.704769		0.566275		-2.938939		-0.289072		1.264864		1.901377		0.006917		-0.000249		0.001294		
1.213566		2.698941		835.196380		119.744348		0.107506		0.000000		0.322421		0.050725		15.697138		2.250541		22.936790		717.704877		73.803502		-0.141533		0.000000		0.331586		0.427230		13.368009		1.374694		2.893366		-0.570414		-0.454680		0.353457		1.255269		1.891324		0.002009		0.006718		0.056097		-15.727480		0.555079		-2.774151		-0.289018		1.264860		1.901311		0.010278		-0.000363		0.001813		
1.216798		3.058294		815.174997		120.010637		0.107230		0.000000		0.321861		0.057287		15.269649		2.248007		24.528777		700.584950		78.134785		-0.142072		0.000000		0.330781		0.495534		14.152726		1.578481		2.934856		-0.564191		-0.486623		0.353514		1.255245		1.891254		0.000686		0.008391		0.053633		-15.682373		0.547847		-2.604802		-0.288976		1.264852		1.901250		0.013076		-0.000457		0.002172		
1.220030		2.524963		794.595710		119.861593		0.107047		0.000000		0.321328		0.046953		14.776063		2.228909		26.120519		682.964728		82.125265		-0.142682		0.000000		0.330020		0.568825		14.872763		1.788435		2.893909		-0.497819		-0.453749		0.353555		1.255220		1.891197		-0.002152		0.008930		0.050323		-15.571328		0.546472		-2.485851		-0.288948		1.264846		1.901196		0.014431		-0.000506		0.002304		
1.223263		1.154744		774.073807		119.331425		0.106989		0.000000		0.320906		0.021240		14.236709		2.194732		27.523153		665.728820		85.473182		-0.143306		0.000000		0.329342		0.639629		15.470919		1.986359		2.808530		-0.404007		-0.361082		0.353581		1.255199		1.891154		-0.005718		0.009065		0.047423		-15.428116		0.557616		-2.438524		-0.288931		1.264842		1.901149		0.013886		-0.000502		0.002195		
1.226495		-0.924621		754.180834		118.491860		0.107084		0.000000		0.320653		-0.016745		13.658492		2.145931		28.684774		649.682778		88.090359		-0.143907		0.000000		0.328762		0.703464		15.932786		2.160325		2.729908		-0.322450		-0.232666		0.353596		1.255186		1.891122		-0.008959		0.009676		0.045578		-15.301864		0.588853		-2.442587		-0.288921		1.264843		1.901110		0.011657		-0.000448		0.001861		
1.229727		-3.552694		735.403030		117.387485		0.107340		0.000000		0.320580		-0.063089		13.060533		2.084762		29.604556		635.525398		90.016314		-0.144461		0.000000		0.328285		0.757781		16.267218		2.304121		2.700225		-0.280319		-0.101387		0.353605		1.255181		1.891096		-0.010956		0.011152		0.044585		-15.232412		0.640955		-2.454206		-0.288914		1.264849		1.901076		0.008513		-0.000358		0.001372		
1.232960		-6.508560		718.097974		116.032994		0.107728		0.000000		0.320648		-0.113054		12.473648		2.015538		30.288209		623.721726		91.266798		-0.144943		0.000000		0.327919		0.800281		16.480054		2.411466		2.734715		-0.285594		0.001633		0.353612		1.255183		1.891075		-0.011266		0.013245		0.043740		-15.232329		0.700719		-2.432778		-0.288908		1.264859		1.901048		0.005529		-0.000254		0.000883		
1.236192		-9.555443		702.578355		114.403835		0.108209		0.000000		0.320804		-0.162104		11.919463		1.940896		30.740074		614.563099		91.688055		-0.145310		0.000000		0.327690		0.827844		16.550447		2.469200		2.818234		-0.335629		0.057748		0.353614		1.255189		1.891057		-0.009954		0.015442		0.042632		-15.288509		0.742813		-2.361466		-0.288905		1.264868		1.901027		0.003632		-0.000176		0.000561		
1.239424		-12.483428		689.103415		112.460213		0.108756		0.000000		0.321017		-0.206768		11.414073		1.862752		30.991886		608.104037		91.051368		-0.145528		0.000000		0.327635		0.838192		16.446490		2.462531		2.911465		-0.423925		0.068155		0.353610		1.255198		1.891043		-0.007527		0.017246		0.041618		-15.373243		0.741446		-2.254431		-0.288903		1.264877		1.901010		0.003209		-0.000155		0.000471		
1.242657		-15.143963		677.951868		110.154735		0.109365		0.000000		0.321308		-0.245390		10.985610		1.784961		31.097342		604.269774		89.216641		-0.145585		0.000000		0.327779		0.831096		16.149500		2.384378		2.967721		-0.540668		0.049317		0.353598		1.255205		1.891030		-0.004663		0.018262		0.041509		-15.462636		0.686217		-2.146490		-0.288902		1.264884		1.901000		0.004072		-0.000181		0.000565		
1.245889		-17.454337		669.336549		107.449352		0.110059		0.000000		0.321735		-0.277932		10.658216		1.710977		31.122053		602.835293		86.292895		-0.145511		0.000000		0.328107		0.809412		15.678338		2.244289		2.954168		-0.663709		0.021055		0.353578		1.255212		1.891019		-0.002031		0.018240		0.042740		-15.546856		0.591322		-2.072880		-0.288899		1.264890		1.900991		0.005707		-0.000217		0.000760		
1.249121		-19.388884		663.361357		104.301917		0.110867		0.000000		0.322360		-0.304917		10.432309		1.640299		31.133036		603.507738		82.584799		-0.145362		0.000000		0.328573		0.778013		15.081628		2.063811		2.872184		-0.756161		-0.004507		0.353551		1.255214		1.891008		-0.000125		0.017159		0.044810		-15.630282		0.488547		-2.051597		-0.288894		1.264895		1.900985		0.007611		-0.000237		0.000999		
1.252354		-20.974080		659.938146		100.662399		0.111784		0.000000		0.323193		-0.327194		10.294997		1.570329		31.191766		605.933047		78.431299		-0.145191		0.000000		0.329124		0.741983		14.413797		1.865735		2.762012		-0.780214		-0.023791		0.353518		1.255210		1.890995		0.000846		0.015427		0.046410		-15.723945		0.412929		-2.078847		-0.288888		1.264900		1.900978		0.009363		-0.000246		0.001238		
1.255586		-22.262710		658.813172		96.484875		0.112763		0.000000		0.324196		-0.346157		10.243719		1.500219		31.330470		609.709425		74.049406		-0.145030		0.000000		0.329720		0.704510		13.710186		1.665129		2.681213		-0.720553		-0.038087		0.353485		1.255198		1.890985		0.000924		0.013910		0.046177		-15.833352		0.388198		-2.136862		-0.288885		1.264903		1.900975		0.010509		-0.000258		0.001418		
1.258818		-23.301244		659.672452		91.761523		0.113752		0.000000		0.325313		-0.363107		10.279790		1.429933		31.525399		614.407721		69.514773		-0.144878		0.000000		0.330343		0.666116		12.982117		1.468850		2.671916		-0.598943		-0.051904		0.353452		1.255180		1.890980		0.000292		0.013603		0.043536		-15.947955		0.417297		-2.204691		-0.288889		1.264902		1.900976		0.010524		-0.000275		0.001455		
1.262051		-24.126003		662.219658		86.553552		0.114722		0.000000		0.326505		-0.378510		10.389477		1.357925		31.700879		619.597439		64.862285		-0.144721		0.000000		0.330978		0.625841		12.232124		1.280531		2.736703		-0.468218		-0.075189		0.353422		1.255160		1.890983		-0.000811		0.015040		0.039130		-16.041830		0.479770		-2.263652		-0.288902		1.264899		1.900983		0.009004		-0.000269		0.001271		
1.265283		-24.771331		666.257523		80.965666		0.115666		0.000000		0.327737		-0.392177		10.548104		1.281832		31.777730		624.892130		60.189630		-0.144551		0.000000		0.331610		0.583408		11.472379		1.105061		2.840805		-0.385076		-0.122993		0.353397		1.255140		1.890996		-0.002185		0.017884		0.034506		-16.084798		0.541312		-2.301294		-0.288927		1.264891		1.900999		0.005943		-0.000200		0.000850		
1.268515		-25.270454		671.654194		75.101592		0.116575		0.000000		0.328955		-0.403954		10.736533		1.200514		31.734488		629.963278		55.679492		-0.144373		0.000000		0.332222		0.540597		10.731422		0.948504		2.935611		-0.377038		-0.207514		0.353376		1.255129		1.891020		-0.003709		0.020926		0.031404		-16.057641		0.571604		-2.313460		-0.288959		1.264885		1.901022		0.001920		-0.000068		0.000276		
1.271747		-25.626163		678.361451		69.008878		0.117435		0.000000		0.330115		-0.413610		10.948857		1.113807		31.625529		634.544464		51.541192		-0.144215		0.000000		0.332793		0.500680		10.045758		0.816000		2.986540		-0.428087		-0.327651		0.353360		1.255127		1.891053		-0.005316		0.022710		0.031062		-15.960333		0.559868		-2.302717		-0.288993		1.264880		1.901048		-0.002012		0.000070		-0.000290		
1.274980		-25.810956		686.307415		62.688308		0.118227		0.000000		0.331196		-0.420800		11.188993		1.022018		31.547880		638.436030		47.918036		-0.144105		0.000000		0.333320		0.466636		9.443323		0.708775		2.985729		-0.489894		-0.458610		0.353347		1.255134		1.891091		-0.006857		0.022495		0.033768		-15.815209		0.517451		-2.278233		-0.289025		1.264879		1.901073		-0.004632		0.000152		-0.000667		
1.278212		-25.786668		695.371732		56.128068		0.118925		0.000000		0.332197		-0.425216		11.466522		0.925530		31.580427		641.449102		44.868605		-0.144071		0.000000		0.333801		0.440020		8.937504		0.625181		2.945944		-0.515151		-0.556115		0.353339		1.255147		1.891129		-0.008052		0.020714		0.038999		-15.656364		0.463180		-2.252906		-0.289049		1.264880		1.901096		-0.004974		0.000147		-0.000716		
1.281444		-25.533590		705.284919		49.371726		0.119510		0.000000		0.333127		-0.426711		11.786568		0.825086		31.744982		643.401575		42.375506		-0.144121		0.000000		0.334239		0.420714		8.526959		0.561604		2.890590		-0.484775		-0.577951		0.353333		1.255161		1.891161		-0.008617		0.018667		0.045506		-15.520081		0.409853		-2.238986		-0.289069		1.264883		1.901117		-0.002797		0.000074		-0.000404		
1.284677		-25.032824		715.627800		42.562653		0.119977		0.000000		0.333992		-0.424673		12.140402		0.722052		32.014367		644.072583		40.430834		-0.144243		0.000000		0.334624		0.408088		8.210040		0.515379		2.841025		-0.410641		-0.510048		0.353330		1.255170		1.891188		-0.008418		0.017505		0.051663		-15.436912		0.360243		-2.243550		-0.289086		1.264886		1.901138		0.001340		-0.000031		0.000195		
1.287909		-24.256046		725.785342		35.968556		0.120337		0.000000		0.334782		-0.417957		12.506069		0.619771		32.337487		643.252908		39.072563		-0.144414		0.000000		0.334933		0.401767		7.991894		0.485446		2.809507		-0.321296		-0.381419		0.353323		1.255174		1.891210		-0.007555		0.017469		0.055860		-15.420809		0.315166		-2.268733		-0.289104		1.264888		1.901162		0.006220		-0.000127		0.000915		
1.291141		-23.170297		734.952771		29.962862		0.120591		0.000000		0.335459		-0.405391		12.858908		0.524230		32.669168		640.753543		38.397739		-0.144607		0.000000		0.335134		0.402156		7.887642		0.472674		2.797593		-0.241138		-0.247759		0.353310		1.255171		1.891230		-0.006291		0.017886		0.057007		-15.458885		0.282524		-2.315249		-0.289128		1.264889		1.901192		0.010418		-0.000190		0.001560		
1.294374		-21.775227		742.195625		24.959681		0.120737		0.000000		0.335982		-0.386622		13.177856		0.443159		32.983560		636.475926		38.495097		-0.144805		0.000000		0.335202		0.409992		7.911508		0.478502		2.798594		-0.178729		-0.160085		0.353288		1.255164		1.891252		-0.004927		0.017754		0.054979		-15.512903		0.276597		-2.381541		-0.289157		1.264889		1.901226		0.012743		-0.000227		0.001956		
1.297606		-20.125167		746.558020		21.336856		0.120767		0.000000		0.336319		-0.362457		13.445685		0.384278		33.274593		630.427029		39.375649		-0.144999		0.000000		0.335125		0.425692		8.065211		0.503745		2.804048		-0.125745		-0.137409		0.353255		1.255157		1.891280		-0.003699		0.016396		0.050680		-15.540929		0.309078		-2.462169		-0.289190		1.264890		1.901263		0.012621		-0.000251		0.002000		
1.300838		-18.333983		747.224849		19.352971		0.120678		0.000000		0.336464		-0.334877		13.648434		0.353490		33.548133		622.729000		40.931238		-0.145195		0.000000		0.334913		0.448810		8.330887		0.547588		2.812371		-0.065044		-0.163738		0.353213		1.255150		1.891319		-0.002741		0.013735		0.045716		-15.522907		0.381145		-2.548678		-0.289225		1.264891		1.901302		0.010287		-0.000253		0.001689		
1.304071		-16.560493		743.704803		19.085819		0.120477		0.000000		0.336423		-0.306672		13.772210		0.353439		33.808530		613.607847		42.964045		-0.145396		0.000000		0.334590		0.478013		8.675665		0.607466		2.833503		0.013531		-0.211218		0.353171		1.255147		1.891365		-0.002109		0.010158		0.041708		-15.472371		0.483213		-2.633281		-0.289259		1.264893		1.901342		0.006618		-0.000206		0.001126		
